<?xml version="1.0" encoding="UTF-8"?>
<svg version="1.1" xmlns="http://www.w3.org/2000/svg" width="500" height="500">
<path d="M0 0 C165 0 330 0 500 0 C500 165 500 330 500 500 C335 500 170 500 0 500 C0 335 0 170 0 0 Z " fill="#FEFEFE" transform="translate(0,0)"/>
<path d="M0 0 C114.84 0 229.68 0 348 0 C348 31.68 348 63.36 348 96 C233.16 96 118.32 96 0 96 C0 64.32 0 32.64 0 0 Z " fill="#FEFEFE" transform="translate(76,291)"/>
<path d="M0 0 C54.45 0 108.9 0 165 0 C165 25.74 165 51.48 165 78 C110.55 78 56.1 78 0 78 C0 52.26 0 26.52 0 0 Z " fill="#7DD857" transform="translate(85,300)"/>
<path d="M0 0 C114.84 0 229.68 0 348 0 C348 31.68 348 63.36 348 96 C233.16 96 118.32 96 0 96 C0 64.32 0 32.64 0 0 Z M2 3 C2 32.7 2 62.4 2 93 C115.19 93 228.38 93 345 93 C345 63.3 345 33.6 345 3 C231.81 3 118.62 3 2 3 Z " fill="#CB6DE6" transform="translate(76,291)"/>
<path d="M0 0 C7.02305029 5.74088886 13.3234361 12.19693456 19.71484375 18.6171875 C20.93773316 19.84194489 22.1608457 21.06647953 23.38417053 22.290802 C26.58385956 25.49428634 29.78053248 28.70076366 32.9765625 31.90789795 C36.246212 35.18782616 39.5187384 38.46488126 42.79101562 41.7421875 C49.19681119 48.15866765 55.59942049 54.578317 62 61 C60.37641304 65.09620634 57.43319604 67.83447899 54.35693359 70.87011719 C53.78118088 71.44616196 53.20542816 72.02220673 52.61222839 72.6157074 C50.71233463 74.51421037 48.80546009 76.40553522 46.8984375 78.296875 C45.57806566 79.61351582 44.25813536 80.93059957 42.93862915 82.24810791 C39.46765724 85.71145037 35.9907207 89.16874418 32.51251221 92.62481689 C28.96305615 96.1537998 25.41926799 99.6884642 21.875 103.22265625 C14.92220537 110.15401308 7.96309691 117.07899377 1 124 C-6.02305029 118.25911114 -12.3234361 111.80306544 -18.71484375 105.3828125 C-19.93773316 104.15805511 -21.1608457 102.93352047 -22.38417053 101.709198 C-25.58385956 98.50571366 -28.78053248 95.29923634 -31.9765625 92.09210205 C-35.246212 88.81217384 -38.5187384 85.53511874 -41.79101562 82.2578125 C-48.19681119 75.84133235 -54.59942049 69.421683 -61 63 C-59.37641304 58.90379366 -56.43319604 56.16552101 -53.35693359 53.12988281 C-52.49330452 52.26581566 -52.49330452 52.26581566 -51.61222839 51.3842926 C-49.71233463 49.48578963 -47.80546009 47.59446478 -45.8984375 45.703125 C-44.57806566 44.38648418 -43.25813536 43.06940043 -41.93862915 41.75189209 C-38.46765724 38.28854963 -34.9907207 34.83125582 -31.51251221 31.37518311 C-27.96305615 27.8462002 -24.41926799 24.3115358 -20.875 20.77734375 C-13.92220537 13.84598692 -6.96309691 6.92100623 0 0 Z M0 4 C-18.81 22.81 -37.62 41.62 -57 61 C-55.02657866 64.94684269 -52.80312065 67.46758957 -49.72412109 70.50292969 C-48.91901344 71.30847542 -48.91901344 71.30847542 -48.09764099 72.1302948 C-46.32760717 73.89893859 -44.55060143 75.66039824 -42.7734375 77.421875 C-41.54274656 78.64883466 -40.3124973 79.87623749 -39.08267212 81.10406494 C-35.84843484 84.33067488 -32.60823592 87.55123291 -29.36676025 90.77056885 C-26.05859466 94.05825672 -22.75610054 97.35163068 -19.453125 100.64453125 C-12.97428921 107.10193298 -6.48914131 113.55295568 0 120 C3.93467549 118.40752446 6.57577776 115.69337631 9.50292969 112.72412109 C10.03996017 112.18738266 10.57699066 111.65064423 11.1302948 111.09764099 C12.89893859 109.32760717 14.66039824 107.55060143 16.421875 105.7734375 C17.64883466 104.54274656 18.87623749 103.3124973 20.10406494 102.08267212 C23.33067488 98.84843484 26.55123291 95.60823592 29.77056885 92.36676025 C33.05825672 89.05859466 36.35163068 85.75610054 39.64453125 82.453125 C46.10193298 75.97428921 52.55295568 69.48914131 59 63 C57.43136457 59.22962001 55.0830978 56.82950818 52.21484375 53.95605469 C51.73008575 53.46779205 51.24532776 52.97952942 50.74588013 52.47647095 C49.14806925 50.86988315 47.54308458 49.27069119 45.9375 47.671875 C44.82384445 46.55687208 43.71048592 45.44157242 42.59741211 44.32598877 C40.26707326 41.9927045 37.93316268 39.66306869 35.59667969 37.3359375 C32.59692438 34.34760284 29.6062717 31.35034434 26.61820984 28.35032272 C24.32277403 26.0476752 22.02261502 23.7497936 19.72097778 21.45334625 C18.61586529 20.34957079 17.51224446 19.24429984 16.41012573 18.1375351 C14.87324522 16.59559781 13.330139 15.06018023 11.78515625 13.52636719 C10.90738525 12.65018738 10.02961426 11.77400757 9.12524414 10.87127686 C7.22176872 8.77972026 7.22176872 8.77972026 5 9 C4.731875 8.360625 4.46375 7.72125 4.1875 7.0625 C3.11332248 4.66868314 3.11332248 4.66868314 0 4 Z " fill="#D280E9" transform="translate(252,126)"/>
<path d="M0 0 C3.04308938 1.80476789 5.40593571 4.20448613 7.86437988 6.71228027 C8.72844704 7.57569031 8.72844704 7.57569031 9.60997009 8.45654297 C11.51089046 10.35955218 13.40096627 12.27296441 15.2911377 14.18664551 C16.60756017 15.50866358 17.92464687 16.83002054 19.24237061 18.15074158 C22.70794362 21.62776615 26.16441308 25.11370584 29.61907959 28.6015625 C33.14625098 32.15942785 36.68193556 35.70881045 40.21691895 39.25891113 C47.15107081 46.22523266 54.07563739 53.20099965 60.9942627 60.18273926 C59.37067574 64.27894559 56.42745874 67.01721824 53.35119629 70.05285645 C52.77544357 70.62890121 52.19969086 71.20494598 51.60649109 71.79844666 C49.70659733 73.69694963 47.79972279 75.58827447 45.8927002 77.47961426 C44.57232836 78.79625508 43.25239805 80.11333883 41.93289185 81.43084717 C38.46191993 84.89418962 34.9849834 88.35148343 31.5067749 91.80755615 C27.95731885 95.33653906 24.41353069 98.87120346 20.8692627 102.40539551 C13.91646807 109.33675234 6.9573596 116.26173303 -0.0057373 123.18273926 C-6.38691499 117.92233969 -12.18763737 112.1292162 -18.0135498 106.27258301 C-19.06751834 105.21674456 -20.12171146 104.16113025 -21.17611694 103.10572815 C-23.93494624 100.34310637 -26.69076138 97.57749733 -29.44592285 94.81121826 C-32.24399425 92.00290903 -35.04490001 89.19742989 -37.84558105 86.39172363 C-42.7757439 81.45202881 -47.70343412 76.50987938 -52.62930298 71.56590271 C-54.29263418 69.89786161 -55.97998645 68.25358838 -57.68466187 66.62782288 C-59.71380816 64.49026531 -60.90699168 62.87966035 -62.0057373 60.18273926 C-54.26649604 52.32781544 -46.51392719 44.48632074 -38.7439003 36.66184139 C-35.13665255 33.0284635 -31.53421699 29.39056626 -27.94226074 25.74206543 C-24.47778116 22.22338992 -21.00134552 18.71695271 -17.51616669 15.21878242 C-16.18647984 13.8798335 -14.86121291 12.53648067 -13.5404129 11.18876457 C-11.69421939 9.30644785 -9.83314199 7.44019186 -7.96765137 5.57702637 C-7.42098816 5.01238678 -6.87432495 4.44774719 -6.31109619 3.86599731 C-2.63573688 0.24013743 -2.63573688 0.24013743 0 0 Z M-5.87187195 6.80003357 C-6.39767349 7.33302567 -6.92347504 7.86601776 -7.46520996 8.41516113 C-8.02145554 8.97111465 -8.57770111 9.52706818 -9.15080261 10.09986877 C-10.99524591 11.94570968 -12.83249731 13.79854265 -14.6697998 15.65148926 C-15.94445981 16.92987786 -17.21956097 18.20782672 -18.49508667 19.48535156 C-21.85652184 22.85443527 -25.21190887 26.22948126 -28.56610107 29.60577393 C-31.98768246 33.04778749 -35.41490888 36.48416986 -38.8416748 39.92102051 C-45.5685882 46.66940532 -52.28913008 53.42409783 -59.0057373 60.18273926 C-57.41164832 64.0958803 -54.72892678 66.76205021 -51.79333496 69.70153809 C-51.2630217 70.24017487 -50.73270844 70.77881165 -50.18632507 71.33377075 C-48.43624228 73.10790022 -46.67863687 74.87432206 -44.9197998 76.63977051 C-43.69905015 77.8694863 -42.47837863 79.09927967 -41.25778198 80.32914734 C-38.70092128 82.90248308 -36.13971222 85.47140528 -33.5760498 88.03796387 C-30.28646833 91.33294595 -27.01336898 94.64380157 -23.74396706 97.95879078 C-21.2302682 100.50216728 -18.7054547 103.03428041 -16.17737961 105.56336021 C-14.96519487 106.7797611 -13.75714694 108.00029867 -12.55330276 109.22495461 C-10.87271766 110.93227709 -9.17718656 112.62321315 -7.47692871 114.31091309 C-6.73177757 115.07831566 -6.73177757 115.07831566 -5.97157288 115.86122131 C-3.35975946 118.50584227 -3.35975946 118.50584227 0.14552307 119.19706726 C2.33598264 117.99525147 3.48489639 116.77936127 5.04528809 114.82531738 C9.75992464 109.19124187 14.9749219 104.07739333 20.17785645 98.90148926 C21.24424354 97.83697154 22.31040688 96.77222964 23.37635803 95.70727539 C26.15731676 92.93010093 28.94126713 90.15594501 31.72589111 87.38244629 C34.5769575 84.54168288 37.42512938 81.69802054 40.27355957 78.85461426 C45.84432787 73.29451096 51.41826589 67.73759907 56.9942627 62.18273926 C55.40171925 58.25950688 52.70405618 55.61001374 49.75012207 52.67980957 C49.21659622 52.14277908 48.68307037 51.6057486 48.13337708 51.05244446 C46.373245 49.28352855 44.60592052 47.52200635 42.8380127 45.76086426 C41.61225585 44.5337602 40.38679603 43.30635938 39.16162109 42.07867432 C36.59589179 39.50999862 34.02658476 36.94497033 31.45471191 34.38244629 C28.15228984 31.09144246 24.85895875 27.79151005 21.56822968 24.48881912 C19.04117851 21.95455682 16.50940287 19.4250578 13.97615051 16.89699554 C12.75939442 15.68157677 11.54413093 14.46466189 10.33036804 13.24625397 C8.63782664 11.54865702 6.93904811 9.85756437 5.23840332 8.16809082 C4.73444534 7.66008438 4.23048737 7.15207794 3.71125793 6.62867737 C-0.61932642 2.35088375 -1.5817984 2.53441254 -5.87187195 6.80003357 Z " fill="#D280E9" transform="translate(186.0057373046875,55.8172607421875)"/>
<path d="M0 0 C4.09620634 1.62358696 6.83447899 4.56680396 9.87011719 7.64306641 C10.73418434 8.50669548 10.73418434 8.50669548 11.6157074 9.38777161 C13.51421037 11.28766537 15.40553522 13.19453991 17.296875 15.1015625 C18.61351582 16.42193434 19.93059957 17.74186464 21.24810791 19.06137085 C24.71145037 22.53234276 28.16874418 26.0092793 31.62481689 29.48748779 C35.1537998 33.03694385 38.6884642 36.58073201 42.22265625 40.125 C49.15401308 47.07779463 56.07899377 54.03690309 63 61 C57.25911114 68.02305029 50.80306544 74.3234361 44.3828125 80.71484375 C43.15805511 81.93773316 41.93352047 83.1608457 40.709198 84.38417053 C37.50571366 87.58385956 34.29923634 90.78053248 31.09210205 93.9765625 C27.81217384 97.246212 24.53511874 100.5187384 21.2578125 103.79101562 C14.84133235 110.19681119 8.421683 116.59942049 2 123 C-2.09620634 121.37641304 -4.83447899 118.43319604 -7.87011719 115.35693359 C-8.44616196 114.78118088 -9.02220673 114.20542816 -9.6157074 113.61222839 C-11.51421037 111.71233463 -13.40553522 109.80546009 -15.296875 107.8984375 C-16.61351582 106.57806566 -17.93059957 105.25813536 -19.24810791 103.93862915 C-22.71145037 100.46765724 -26.16874418 96.9907207 -29.62481689 93.51251221 C-33.1537998 89.96305615 -36.6884642 86.41926799 -40.22265625 82.875 C-47.15401308 75.92220537 -54.07899377 68.96309691 -61 62 C-55.25911114 54.97694971 -48.80306544 48.6765639 -42.3828125 42.28515625 C-41.15805511 41.06226684 -39.93352047 39.8391543 -38.709198 38.61582947 C-35.50571366 35.41614044 -32.29923634 32.21946752 -29.09210205 29.0234375 C-25.81217384 25.753788 -22.53511874 22.4812616 -19.2578125 19.20898438 C-12.84133235 12.80318881 -6.421683 6.40057951 0 0 Z M-4.1875 7.5 C-4.92355469 8.1496875 -5.65960938 8.799375 -6.41796875 9.46875 C-8.43307218 11.44422204 -10.23397997 13.40784579 -12.05810547 15.54882812 C-16.37273706 20.50292289 -20.99476584 25.12035191 -25.65234375 29.75 C-26.55247696 30.64871826 -27.45261017 31.54743652 -28.38002014 32.47338867 C-30.74711263 34.83586575 -33.11634639 37.19615112 -35.48669434 39.55535889 C-37.91550742 41.97385181 -40.34141103 44.39525946 -42.76757812 46.81640625 C-47.50907369 51.54692954 -52.25341898 56.27457973 -57 61 C-55.40752446 64.93467549 -52.69337631 67.57577776 -49.72412109 70.50292969 C-48.91901344 71.30847542 -48.91901344 71.30847542 -48.09764099 72.1302948 C-46.32760717 73.89893859 -44.55060143 75.66039824 -42.7734375 77.421875 C-41.54274656 78.64883466 -40.3124973 79.87623749 -39.08267212 81.10406494 C-35.84843484 84.33067488 -32.60823592 87.55123291 -29.36676025 90.77056885 C-26.05859466 94.05825672 -22.75610054 97.35163068 -19.453125 100.64453125 C-12.97428921 107.10193298 -6.48914131 113.55295568 0 120 C3.87895385 118.40685444 6.34046421 115.91326408 9.28759766 112.97119141 C9.80190842 112.46038528 10.31621918 111.94957916 10.84611511 111.42329407 C12.54048837 109.73770494 14.22746227 108.04492669 15.9140625 106.3515625 C17.09153501 105.17543759 18.26930424 103.99960969 19.44735718 102.82406616 C21.91348436 100.36088575 24.37596246 97.8941288 26.8359375 95.42480469 C29.9877532 92.2615948 33.14846191 89.10744794 36.31196022 85.9559269 C38.74508896 83.53002876 41.17342955 81.0993827 43.60035324 78.66727829 C44.7638815 77.50241686 45.92889454 76.33903655 47.09541702 75.17717361 C48.72556699 73.5521085 50.34915845 71.92075937 51.97119141 70.28759766 C52.89622467 69.36097321 53.82125793 68.43434875 54.77432251 67.47964478 C56.69596443 65.33872841 57.91711468 63.63658405 59 61 C51.60852913 53.56227147 44.21172698 46.12989129 36.80799294 38.70436859 C33.37063634 35.2565567 29.93517219 31.80690157 26.50390625 28.35302734 C23.19499849 25.02245338 19.88128653 21.69673107 16.56412888 18.37437439 C15.29686057 17.10339911 14.0313593 15.83065951 12.76762772 14.5561676 C11.00283136 12.77693908 9.23196264 11.00398123 7.45947266 9.23242188 C6.93367111 8.69942978 6.40786957 8.16643768 5.86613464 7.61729431 C1.40249507 3.17909655 0.39884668 3.39518026 -4.1875 7.5 Z " fill="#D27FE9" transform="translate(322,55)"/>
<path d="M0 0 C0.66 0.66 1.32 1.32 2 2 C-15.49 19.49 -32.98 36.98 -51 55 C-49.06141585 58.87716829 -46.9039224 61.41088183 -43.91113281 64.42700195 C-43.39378571 64.95588516 -42.8764386 65.48476837 -42.34341431 66.02967834 C-40.63570219 67.77161232 -38.92025052 69.50562851 -37.203125 71.23828125 C-36.61668968 71.83161947 -36.03025436 72.4249577 -35.42604828 73.03627586 C-32.32555337 76.17255863 -29.21899402 79.30268694 -26.10742188 82.42797852 C-22.89292474 85.65906831 -19.69992832 88.91057041 -16.51134109 92.16720295 C-14.05572948 94.66752645 -11.58471022 97.15217886 -9.10921478 99.63280296 C-7.92480102 100.82512251 -6.74627999 102.02332569 -5.57382965 103.22741127 C-3.93405769 104.90849336 -2.2736883 106.56619259 -0.60644531 108.2199707 C-0.12621918 108.72222168 0.35400696 109.22447266 0.8487854 109.74194336 C2.37557272 111.30259072 2.37557272 111.30259072 5 113 C8.27520362 112.93255953 8.27520362 112.93255953 11 112 C9.63016497 115.16115776 9.0109362 115.9927092 6 118 C-12 100 -30 82 -48 64 C-48.89769608 63.14355392 -49.79539215 62.28710785 -50.72029114 61.40470886 C-53 59 -53 59 -55 55 C-36.85 36.85 -18.7 18.7 0 0 Z " fill="#CB6EE6" transform="translate(179,61)"/>
<path d="M0 0 C1.98 0 3.96 0 6 0 C6 3.63 6 7.26 6 11 C9.3 11 12.6 11 16 11 C16 7.37 16 3.74 16 0 C17.98 0 19.96 0 22 0 C22 8.58 22 17.16 22 26 C20.02 26 18.04 26 16 26 C16 22.37 16 18.74 16 15 C12.7 15 9.4 15 6 15 C6 18.63 6 22.26 6 26 C4.02 26 2.04 26 0 26 C0 17.42 0 8.84 0 0 Z " fill="#090909" transform="translate(281,330)"/>
<path d="M0 0 C4.41819363 0.43172454 6.83487784 3.43416954 9.77832031 6.43774414 C10.34461151 7.00359726 10.91090271 7.56945038 11.49435425 8.15245056 C13.36281064 10.02299557 15.22041899 11.90393926 17.078125 13.78515625 C18.37212717 15.08475409 19.66679364 16.3836908 20.96209717 17.68199158 C24.36848751 21.09983285 27.7657726 24.52658763 31.16125488 27.95526123 C34.62810229 31.45280394 38.10346437 34.94186298 41.578125 38.43164062 C48.39378855 45.27947274 55.19986543 52.13674927 62 59 C60.41600411 62.89395116 57.75803057 65.51152235 54.81591797 68.41113281 C54.28893311 68.93840973 53.76194824 69.46568665 53.21899414 70.00894165 C51.48142524 71.74512072 49.73688686 73.474114 47.9921875 75.203125 C46.78391678 76.40766437 45.57608778 77.61264697 44.36868286 78.8180542 C41.19362923 81.98548106 38.01261478 85.14685513 34.83032227 88.30700684 C31.58247924 91.53437089 28.34030867 94.76742228 25.09765625 98 C18.73731018 104.33891303 12.37065247 110.67144624 6 117 C5.67 116.01 5.34 115.02 5 114 C22.49 96.51 39.98 79.02 58 61 C56.06133991 57.12267982 54.38509893 55.14222987 51.35424805 52.12719727 C50.8840625 51.65671967 50.41387695 51.18624207 49.92944336 50.70150757 C48.37823001 49.15168413 46.82005495 47.60906478 45.26171875 46.06640625 C44.17752604 44.98594779 43.09377709 43.90504387 42.01045227 42.82371521 C39.15789004 39.97878113 36.29937992 37.13989726 33.4395752 34.30224609 C30.54273209 31.42578766 27.65146451 28.54373762 24.75976562 25.66210938 C19.66030917 20.5817788 14.55596837 15.50640149 9.44804382 10.43458557 C8.64018936 9.63117233 7.8323349 8.82775909 7 8 C6.11242508 7.13370468 5.22485016 6.26740936 4.31037903 5.37486267 C2 3 2 3 0 0 Z " fill="#CB6EE6" transform="translate(252,128)"/>
<path d="M0 0 C6.77715965 5.5583674 12.88350353 11.75631661 19.05859375 17.9609375 C20.21422229 19.11843426 21.37007414 20.27570811 22.52613831 21.43276978 C25.54827738 24.45870218 28.56739953 27.48762697 31.58587646 30.51721191 C34.67455447 33.61617295 37.76611335 36.71225713 40.85742188 39.80859375 C46.90775098 45.86960394 52.95489193 51.93378247 59 58 C62.8239492 56.42122567 65.23642099 54.00498287 68.13574219 51.09130859 C68.88276649 50.34472237 68.88276649 50.34472237 69.6448822 49.58305359 C71.28366733 47.9428793 72.91526134 46.29574339 74.546875 44.6484375 C75.68415347 43.50742744 76.8218754 42.36685923 77.96002197 41.22671509 C80.94989979 38.22921238 83.93372191 35.22575149 86.9163208 32.2210083 C89.96271321 29.15413288 93.01479703 26.09293306 96.06640625 23.03125 C102.04985434 17.02637217 108.02691663 11.01518768 114 5 C114.495 6.485 114.495 6.485 115 8 C97.18 25.82 79.36 43.64 61 62 C56.94839542 59.97419771 54.34354005 57.61310887 51.22167969 54.44873047 C50.65538849 53.88273132 50.08909729 53.31673218 49.50564575 52.73358154 C47.63960762 50.8661528 45.78074904 48.99174538 43.921875 47.1171875 C42.62765446 45.81923589 41.33299095 44.52172584 40.03790283 43.22463989 C36.63374354 39.81285164 33.23563366 36.39509948 29.83874512 32.97607422 C26.37008593 29.4869408 22.89574417 26.00347613 19.421875 22.51953125 C12.60900698 15.68522632 5.8025158 8.84460797 -1 2 C-0.67 1.34 -0.34 0.68 0 0 Z " fill="#CB6DE6" transform="translate(263,116)"/>
<path d="M0 0 C1.2649379 -0.00095673 2.52987579 -0.00191345 3.83314514 -0.00289917 C6.51534446 -0.00357897 9.19745245 -0.00224654 11.87963867 0.00244141 C14.57790338 0.00693811 17.27610078 0.00706922 19.97436523 0.00244141 C40.99474614 -0.03120984 62.10089021 -0.02488597 83.03515625 2.1328125 C83.03515625 3.1228125 83.03515625 4.1128125 83.03515625 5.1328125 C81.38942392 5.16049772 79.74354556 5.17950835 78.09765625 5.1953125 C76.72287109 5.21271484 76.72287109 5.21271484 75.3203125 5.23046875 C72.03515625 5.1328125 72.03515625 5.1328125 68.26293945 4.63500977 C61.560802 3.87521511 54.84140629 3.98878263 48.10546875 4 C46.66494734 3.99932463 45.22442605 3.99835267 43.78390503 3.99710083 C40.77666124 3.99563389 37.76944732 3.99774532 34.76220703 4.00244141 C30.93754244 4.00812773 27.11294821 4.00486022 23.28828621 3.99886894 C20.31630947 3.99522728 17.34434895 3.99641852 14.37237167 3.99899673 C12.96359117 3.99965661 11.55480912 3.99887106 10.14603043 3.99651718 C2.84062908 3.98698896 -4.36472436 4.11636764 -11.63160706 4.90232849 C-15.42842465 5.27738934 -19.21486562 5.31684976 -23.02734375 5.3203125 C-24.14399414 5.33868164 -24.14399414 5.33868164 -25.28320312 5.35742188 C-27.17855564 5.36257696 -29.07351698 5.25638756 -30.96484375 5.1328125 C-31.62484375 4.4728125 -32.28484375 3.8128125 -32.96484375 3.1328125 C-30.01966974 1.43750918 -28.03606927 0.92005826 -24.65234375 1.0703125 C-22.01118093 1.17937308 -19.73389296 1.09278235 -17.11816406 0.6394043 C-11.44554099 -0.19154787 -5.71997121 -0.00964068 0 0 Z " fill="#E7E7E7" transform="translate(225.96484375,253.8671875)"/>
<path d="M0 0 C1.4540625 0.0309375 1.4540625 0.0309375 2.9375 0.0625 C4.28136556 3.6419717 5.61073814 7.22665713 6.9375 10.8125 C7.3190625 11.82828125 7.700625 12.8440625 8.09375 13.890625 C8.4546875 14.8703125 8.815625 15.85 9.1875 16.859375 C9.52265625 17.76010742 9.8578125 18.66083984 10.203125 19.58886719 C10.9375 22.0625 10.9375 22.0625 10.9375 26.0625 C8.5625 26.25 8.5625 26.25 5.9375 26.0625 C3.9375 23.0625 3.9375 23.0625 3.9375 20.0625 C0.9675 20.0625 -2.0025 20.0625 -5.0625 20.0625 C-5.3925 22.0425 -5.7225 24.0225 -6.0625 26.0625 C-8.0425 26.0625 -10.0225 26.0625 -12.0625 26.0625 C-11.40196516 20.45712794 -9.53971446 15.49477973 -7.5625 10.25 C-7.08103516 8.94385742 -7.08103516 8.94385742 -6.58984375 7.61132812 C-3.7828973 0.07720199 -3.7828973 0.07720199 0 0 Z " fill="#0D0D0D" transform="translate(363.0625,329.9375)"/>
<path d="M0 0 C2.31 0 4.62 0 7 0 C8.34090793 3.7681831 9.6714179 7.53995521 11 11.3125 C11.3815625 12.38435547 11.763125 13.45621094 12.15625 14.56054688 C12.5171875 15.58857422 12.878125 16.61660156 13.25 17.67578125 C13.58515625 18.62364502 13.9203125 19.57150879 14.265625 20.5480957 C15 23 15 23 15 26 C13.02 26 11.04 26 9 26 C8.67 24.02 8.34 22.04 8 20 C5.03 20 2.06 20 -1 20 C-1.66 21.98 -2.32 23.96 -3 26 C-4.65 26 -6.3 26 -8 26 C-6.36231563 16.99273599 -3.13020303 8.57360642 0 0 Z " fill="#0C0C0C" transform="translate(314,330)"/>
<path d="M0 0 C2.8125 1.1875 2.8125 1.1875 5 3 C5.8125 5.6875 5.8125 5.6875 6 8 C4.02 8 2.04 8 0 8 C-0.33 7.34 -0.66 6.68 -1 6 C-2.32 6 -3.64 6 -5 6 C-5 7.32 -5 8.64 -5 10 C-4.38511719 10.18175781 -3.77023438 10.36351562 -3.13671875 10.55078125 C-1.92435547 10.92783203 -1.92435547 10.92783203 -0.6875 11.3125 C0.51326172 11.67794922 0.51326172 11.67794922 1.73828125 12.05078125 C4.14708487 13.06172992 5.39229047 13.95612953 7 16 C7.68309469 19.92779445 7.31362682 21.51910554 5.125 24.875 C1.32346442 27.46004419 -1.09245205 27.77860677 -5.6171875 27.5625 C-8.30384312 26.9282731 -9.32421923 26.24553516 -11.125 24.1875 C-13 21 -13 21 -13 18 C-10.125 17.8125 -10.125 17.8125 -7 18 C-6.34 18.99 -5.68 19.98 -5 21 C-2.41619823 21.25030977 -2.41619823 21.25030977 0 21 C0 20.01 0 19.02 0 18 C-0.69867188 17.73445313 -1.39734375 17.46890625 -2.1171875 17.1953125 C-3.02726563 16.84210938 -3.93734375 16.48890625 -4.875 16.125 C-5.77992188 15.77695312 -6.68484375 15.42890625 -7.6171875 15.0703125 C-10 14 -10 14 -12 12 C-12.65635121 6.91327816 -12.65635121 6.91327816 -12 4 C-8.22289178 0.40275408 -5.16178713 -0.76877681 0 0 Z " fill="#060B04" transform="translate(196,329)"/>
<path d="M0 0 C37.29 0 74.58 0 113 0 C113 0.66 113 1.32 113 2 C111.84371094 2.09087891 111.84371094 2.09087891 110.6640625 2.18359375 C109.66117187 2.26738281 108.65828125 2.35117187 107.625 2.4375 C106.12839844 2.55931641 106.12839844 2.55931641 104.6015625 2.68359375 C102.02072387 2.84965626 102.02072387 2.84965626 100 4 C98.00347214 4.08632881 96.00398646 4.10706959 94.00561523 4.09765625 C92.74768661 4.09435303 91.489758 4.0910498 90.19371033 4.08764648 C89.51986738 4.08352753 88.84602444 4.07940857 88.15176201 4.07516479 C86.04680749 4.06242869 83.94191578 4.05589293 81.83692932 4.05102539 C77.37042473 4.03958441 72.9039718 4.02033477 68.4375 4 C63.25982602 3.97644749 58.08218142 3.95604485 52.90446663 3.94406128 C50.82538571 3.93755257 48.74639421 3.92504552 46.66734314 3.91235352 C45.41256668 3.90905029 44.15779022 3.90574707 42.86499023 3.90234375 C41.75405502 3.89710693 40.64311981 3.89187012 39.4985199 3.88647461 C37.05929786 3.71594139 37.05929786 3.71594139 36 5 C32.41618323 5.09492693 28.83011619 4.85419177 25.25 4.6875 C24.2077124 4.64117432 23.1654248 4.59484863 22.09155273 4.54711914 C14.61500905 4.17477321 7.35211706 3.45348955 0 2 C0 1.34 0 0.68 0 0 Z " fill="#E7E7E7" transform="translate(195,263)"/>
<path d="M0 0 C5.94 0 11.88 0 18 0 C18 1.65 18 3.3 18 5 C14.04 5 10.08 5 6 5 C6 6.98 6 8.96 6 11 C9.3 11 12.6 11 16 11 C16 12.32 16 13.64 16 15 C12.7 15 9.4 15 6 15 C6 16.98 6 18.96 6 21 C9.96 21 13.92 21 18 21 C18 22.65 18 24.3 18 26 C12.06 26 6.12 26 0 26 C0 17.42 0 8.84 0 0 Z " fill="#050903" transform="translate(159,330)"/>
<path d="M0 0 C1.98 0 3.96 0 6 0 C7.32 2.97 8.64 5.94 10 9 C11.72073669 6.78762426 13.09917388 4.79220712 14.3125 2.25 C14.869375 1.5075 15.42625 0.765 16 0 C19.10546875 -0.140625 19.10546875 -0.140625 22 0 C21.43410156 1.12277344 20.86820313 2.24554688 20.28515625 3.40234375 C19.54355376 4.91371085 18.80270869 6.42544978 18.0625 7.9375 C17.50272461 9.04061523 17.50272461 9.04061523 16.93164062 10.16601562 C14.33220273 15.52881993 13.37233587 20.04853619 13 26 C11.35 26 9.7 26 8 26 C8.00902344 25.42894531 8.01804688 24.85789062 8.02734375 24.26953125 C7.76121995 16.99162399 5.17648173 11.99812509 1.49609375 5.78515625 C0 3 0 3 0 0 Z " fill="#050803" transform="translate(132,330)"/>
<path d="M0 0 C1.98 0 3.96 0 6 0 C6 6.93 6 13.86 6 21 C9.63 21 13.26 21 17 21 C17 22.65 17 24.3 17 26 C11.39 26 5.78 26 0 26 C0 17.42 0 8.84 0 0 Z " fill="#070707" transform="translate(377,330)"/>
<path d="M0 0 C1.98 0 3.96 0 6 0 C6 6.93 6 13.86 6 21 C9.63 21 13.26 21 17 21 C17 22.65 17 24.3 17 26 C11.39 26 5.78 26 0 26 C0 17.42 0 8.84 0 0 Z " fill="#060606" transform="translate(332,330)"/>
<path d="M0 0 C0 0.99 0 1.98 0 3 C-5.19885298 3.08745734 -10.33518413 3.16552074 -15.5 2.5 C-18.73938777 2.0879224 -21.85945134 1.96146845 -25.125 2 C-32.11175189 2.07950785 -39.0366153 1.5262477 -46 1 C-46 0.67 -46 0.34 -46 0 C-14.88598505 -1.40027356 -14.88598505 -1.40027356 0 0 Z " fill="#E2E2E2" transform="translate(309,256)"/>
<path d="M0 0 C0 0.66 0 1.32 0 2 C-6.60244654 3.06110748 -12.83632604 2.94290658 -19.5 2.5625 C-21.01980469 2.48418945 -21.01980469 2.48418945 -22.5703125 2.40429688 C-25.04727608 2.27577518 -27.52371337 2.14087234 -30 2 C-30 1.67 -30 1.34 -30 1 C-19.98707052 -0.09945892 -10.05598201 -0.10055982 0 0 Z " fill="#E1E1E1" transform="translate(308,263)"/>
<path d="M0 0 C5.61 0.33 11.22 0.66 17 1 C17 1.99 17 2.98 17 4 C10.88909517 4.09945415 5.02596573 4.0712828 -1 3 C-0.67 2.01 -0.34 1.02 0 0 Z " fill="#E8E8E8" transform="translate(292,255)"/>
<path d="M0 0 C2.76223278 2.76223278 2.57856291 5.20706617 3 9 C1.35 9 -0.3 9 -2 9 C-1.34 6.03 -0.68 3.06 0 0 Z " fill="#CDCDCD" transform="translate(362,337)"/>
<path d="M0 0 C2.12508244 3.18762365 2.5020163 5.26512223 3 9 C1.35 9 -0.3 9 -2 9 C-1.125 2.25 -1.125 2.25 0 0 Z " fill="#CDCDCD" transform="translate(317,337)"/>
<path d="M0 0 C0 0.66 0 1.32 0 2 C-6.0546875 2.9765625 -6.0546875 2.9765625 -8 3 C-8.66 2.34 -9.32 1.68 -10 1 C-6.61981469 -0.04005702 -3.5219721 -0.08004482 0 0 Z " fill="#EBEBEB" transform="translate(308,263)"/>
<path d="M0 0 C1.65 1.65 3.3 3.3 5 5 C4.01 6.485 4.01 6.485 3 8 C0.9375 5.6875 0.9375 5.6875 -1 3 C-0.67 2.01 -0.34 1.02 0 0 Z " fill="#D07AE8" transform="translate(126,116)"/>
</svg>
